<svg width="39" height="39" viewBox="0 0 39 39" fill="none" xmlns="http://www.w3.org/2000/svg">
<rect width="39" height="39" rx="10" fill="black"/>
<line x1="13.3237" y1="18.9302" x2="5.91365" y2="34.9202" stroke="black"/>
<line x1="26.575" y1="18.4921" x2="34.765" y2="34.4821" stroke="black"/>
<path d="M19.2519 4.24771C21.0754 4.24771 22.7921 4.68264 24.2935 5.44938C24.1729 6.1197 23.9392 6.59401 23.6197 6.89792C23.4448 7.06422 23.2162 7.20603 22.9292 7.31933C21.8197 6.79609 20.5718 6.50313 19.2519 6.50313C14.6677 6.50313 10.9515 10.0374 10.9515 14.3971C10.9515 17.6121 12.9724 20.3782 15.872 21.6091C16.9599 22.0129 17.9645 22.2348 18.8856 22.2816L19.2519 22.2911C20.2713 22.2911 21.3981 22.0668 22.631 21.611C24.0789 20.9956 25.3076 19.9981 26.1752 18.7534C27.1861 19.0842 28.4025 18.8833 29.1695 18.1512C28.5132 19.7192 27.4578 21.0941 26.1229 22.1634L28.6864 29.4786C29.1074 30.6796 28.5694 31.9955 27.4059 32.6106C25.2371 33.7571 22.5156 34.32 19.2519 34.32C15.9883 34.32 13.2668 33.7571 11.0981 32.6106C9.93451 31.9956 9.39648 30.6797 9.81744 29.4786L12.381 22.1634C10.0567 20.3016 8.57996 17.5134 8.57996 14.3971C8.57996 8.79175 13.358 4.24771 19.2519 4.24771ZM24.0845 23.481L23.5159 23.7037L23.4873 23.7158C22.3385 24.1887 21.0851 24.4751 19.7692 24.5348C19.7594 24.5331 19.7505 24.5336 19.7415 24.534C19.7038 24.5376 19.6652 24.5391 19.6266 24.5404L19.2519 24.5465L18.9421 24.5405L18.7355 24.5327C17.4188 24.4751 16.1654 24.1887 15.0166 23.7158L14.988 23.7037C14.7998 23.6337 14.6103 23.5595 14.4194 23.481L12.0673 30.1919C12.0072 30.3634 12.084 30.5514 12.2502 30.6393C14.0346 31.5826 16.365 32.0646 19.2519 32.0646C22.1389 32.0646 24.4692 31.5826 26.2537 30.6393C26.4199 30.5514 26.4967 30.3634 26.4366 30.1918L24.0845 23.481ZM18.7616 24.536L18.9421 24.5405L18.9947 24.543L19.2519 24.5465C19.0876 24.5465 18.9241 24.543 18.7616 24.536ZM28.7262 4.06759L28.7382 4.24771C28.7382 5.97627 29.1648 7.1936 29.9719 7.96114C30.7169 8.66964 31.8648 9.06989 33.4666 9.12727L33.8765 9.13445C35.3917 9.13445 35.4548 11.2058 34.0659 11.3785L33.8765 11.3899C32.059 11.3899 30.779 11.7956 29.9719 12.5632C29.2269 13.2717 28.8061 14.3634 28.7457 15.8868L28.7382 16.2766C28.7382 17.7802 26.3666 17.7802 26.3666 16.2766C26.3666 14.5481 25.9399 13.3307 25.1329 12.5632C24.3879 11.8547 23.2399 11.4544 21.6382 11.3971L21.2282 11.3899C19.7131 11.3899 19.65 9.31849 21.0388 9.14587L21.2282 9.13445C23.0458 9.13445 24.3258 8.72868 25.1329 7.96114C25.9399 7.1936 26.3666 5.97627 26.3666 4.24771C26.3666 2.80674 28.5447 2.7467 28.7262 4.06759ZM27.5524 8.68714L27.3252 8.99337C27.167 9.19201 26.9953 9.3796 26.8098 9.55596C26.5317 9.82051 26.2269 10.0558 25.8963 10.2622C26.2269 10.4686 26.5317 10.7038 26.8098 10.9684C27.088 11.2329 27.3354 11.5227 27.5524 11.8372C27.7694 11.5227 28.0168 11.2329 28.295 10.9684C28.5731 10.7038 28.8778 10.4686 29.2085 10.2622C28.8778 10.0558 28.5731 9.82051 28.295 9.55596C28.1095 9.3796 27.9377 9.19201 27.7795 8.99337L27.5524 8.68714Z" fill="#FCF204"/>
</svg>
